<svg width="19" height="18" viewBox="0 0 19 18" fill="none" xmlns="http://www.w3.org/2000/svg">
<g clip-path="url(#clip0_0_4338)">
<path d="M17.3765 0.653721C17.1421 0.419863 16.8588 0.240914 16.5468 0.129768C16.2349 0.0186233 15.9023 -0.0219503 15.5728 0.0109712C13.478 0.213471 6.4333 1.08572 3.7123 3.80372C2.41163 5.10794 1.64035 6.84784 1.5474 8.68743C1.45446 10.527 2.04645 12.3358 3.20905 13.7645L11.504 5.46947C11.6455 5.33285 11.8349 5.25726 12.0316 5.25897C12.2282 5.26068 12.4163 5.33955 12.5554 5.47861C12.6945 5.61766 12.7733 5.80577 12.775 6.00242C12.7768 6.19907 12.7012 6.38852 12.5645 6.52997L4.27255 14.825C5.70072 15.9883 7.50935 16.581 9.34903 16.4886C11.1887 16.3962 12.9289 15.6253 14.2333 14.3247C16.9903 11.567 17.8333 4.54397 18.0275 2.45747C18.0593 2.12738 18.0174 1.79435 17.9048 1.48242C17.7922 1.17049 17.6118 0.887451 17.3765 0.653721ZM3.7123 14.3247C3.8913 14.5032 4.07705 14.671 4.26955 14.828L1.31455 17.783C1.17272 17.9192 0.983041 17.9944 0.786369 17.9921C0.589697 17.9899 0.401777 17.9105 0.263093 17.771C0.12441 17.6315 0.0460642 17.4431 0.0449343 17.2465C0.0438044 17.0498 0.119981 16.8605 0.257053 16.7195L3.21205 13.7645C3.36905 13.9565 3.5358 14.1432 3.7123 14.3247Z" fill="#4BAF47"/>
</g>
<defs>
<clipPath id="clip0_0_4338">
<rect width="18" height="18" fill="white" transform="translate(0.0371094)"/>
</clipPath>
</defs>
</svg>
