<svg width="19" height="18" viewBox="0 0 19 18" fill="none" xmlns="http://www.w3.org/2000/svg">
<g clip-path="url(#clip0_0_4360)">
<path d="M17.3765 0.653599C17.1421 0.419741 16.8588 0.240792 16.5468 0.129646C16.2349 0.0185012 15.9023 -0.0220724 15.5728 0.0108491C13.478 0.213349 6.4333 1.0856 3.7123 3.8036C2.41163 5.10782 1.64035 6.84772 1.5474 8.68731C1.45446 10.5269 2.04645 12.3357 3.20905 13.7644L11.504 5.46935C11.6455 5.33273 11.8349 5.25714 12.0316 5.25884C12.2282 5.26055 12.4163 5.33943 12.5554 5.47849C12.6945 5.61754 12.7733 5.80565 12.775 6.0023C12.7768 6.19895 12.7012 6.3884 12.5645 6.52985L4.27255 14.8249C5.70072 15.9882 7.50935 16.5809 9.34903 16.4885C11.1887 16.3961 12.9289 15.6251 14.2333 14.3246C16.9903 11.5669 17.8333 4.54385 18.0275 2.45735C18.0593 2.12725 18.0174 1.79422 17.9048 1.4823C17.7922 1.17037 17.6118 0.887329 17.3765 0.653599ZM3.7123 14.3246C3.8913 14.5031 4.07705 14.6709 4.26955 14.8279L1.31455 17.7829C1.17272 17.9191 0.983041 17.9942 0.786369 17.992C0.589697 17.9897 0.401777 17.9103 0.263093 17.7709C0.12441 17.6314 0.0460642 17.443 0.0449343 17.2463C0.0438044 17.0497 0.119981 16.8604 0.257053 16.7194L3.21205 13.7644C3.36905 13.9564 3.5358 14.1431 3.7123 14.3246Z" fill="white"/>
</g>
<defs>
<clipPath id="clip0_0_4360">
<rect width="18" height="18" fill="white" transform="translate(0.0371094)"/>
</clipPath>
</defs>
</svg>
