<svg width="31" height="30" viewBox="0 0 31 30" fill="none" xmlns="http://www.w3.org/2000/svg">
<path d="M28.9358 1.08949C28.5451 0.69973 28.0729 0.401482 27.553 0.21624C27.0332 0.0309981 26.4787 -0.0366246 25.9296 0.0182446C22.4383 0.355745 10.6971 1.80949 6.1621 6.3395C3.99431 8.51319 2.70885 11.413 2.55394 14.479C2.39904 17.545 3.38569 20.5596 5.32335 22.9407L19.1483 9.11575C19.3841 8.88805 19.6998 8.76205 20.0276 8.7649C20.3553 8.76775 20.6688 8.89921 20.9006 9.13097C21.1324 9.36273 21.2638 9.67625 21.2667 10.004C21.2695 10.3317 21.1435 10.6475 20.9158 10.8832L7.09585 24.7082C9.47613 26.6471 12.4905 27.6349 15.5567 27.481C18.6228 27.327 21.523 26.0421 23.6971 23.8745C28.2921 19.2782 29.6971 7.57325 30.0208 4.09574C30.0737 3.54558 30.0039 2.99054 29.8162 2.47066C29.6286 1.95078 29.3279 1.47904 28.9358 1.08949ZM6.1621 23.8745C6.46043 24.172 6.77002 24.4516 7.09085 24.7132L2.16585 29.6382C1.92947 29.8654 1.61334 29.9905 1.28555 29.9868C0.957764 29.9831 0.644563 29.8507 0.413424 29.6183C0.182285 29.3858 0.0517085 29.0719 0.0498253 28.7441C0.0479422 28.4163 0.174903 28.1008 0.403356 27.8657L5.32835 22.9407C5.59002 23.2607 5.86793 23.572 6.1621 23.8745Z" fill="#4BAF47"/>
</svg>
