<svg width="43" height="40" viewBox="0 0 43 40" fill="none" xmlns="http://www.w3.org/2000/svg">
<path d="M40.7364 38.6002C41.079 38.6002 41.4031 38.4459 41.6189 38.1796C41.8347 37.9134 41.9188 37.5643 41.848 37.2291L41.1326 33.8433C41.54 33.4492 41.7962 32.8988 41.7962 32.2869C41.7962 31.6427 41.5092 31.0714 41.0639 30.6744V18.9166L38.1959 20.6915V30.6744C37.7506 31.0714 37.4636 31.6427 37.4636 32.2869C37.4636 32.8989 37.7198 33.4493 38.1273 33.8433L37.4117 37.2291C37.3409 37.5643 37.4252 37.9135 37.6408 38.1796C37.8566 38.4457 38.1807 38.6002 38.5233 38.6002H40.7364ZM41.7085 12.0555L23.0503 0.505561C22.5039 0.168969 21.8879 0 21.2719 0C20.6559 0 20.0395 0.168827 19.4964 0.505561L0.837923 12.0555C0.339703 12.3638 0.0371094 12.9083 0.0371094 13.4943C0.0371094 14.0804 0.339703 14.6251 0.837923 14.9339L19.4963 26.484C20.0394 26.8209 20.6558 26.9895 21.2718 26.9895C21.8878 26.9895 22.5039 26.8207 23.0503 26.484L41.7085 14.9339C42.2068 14.6252 42.5094 14.0804 42.5094 13.4943C42.5094 12.9083 42.2068 12.3636 41.7085 12.0555ZM21.2718 29.8574C20.1096 29.8574 18.9752 29.5346 17.9865 28.9226L7.10294 22.1848V33.7867C7.10294 37.2204 13.4496 40 21.2718 40C29.0969 40 35.443 37.2203 35.443 33.7867V22.1848L24.5599 28.9226C23.5711 29.5346 22.4341 29.8574 21.2718 29.8574Z" fill="#4BAF47"/>
</svg>
