<svg width="41" height="40" viewBox="0 0 41 40" fill="none" xmlns="http://www.w3.org/2000/svg">
<path d="M20.0366 20.7272C25.7594 20.7272 30.3994 16.0873 30.3994 10.3636C30.3994 4.64156 25.7594 0 20.0366 0C14.313 0 9.67383 4.64156 9.67383 10.3636C9.67383 16.0873 14.313 20.7272 20.0366 20.7272Z" fill="#4BAF47"/>
<path d="M33.3082 30.7113C32.8455 27.9399 30.4957 24.109 28.8119 22.3156C28.3565 21.8302 27.566 22.0321 27.2882 22.2041C25.1757 23.5066 22.6958 24.2665 20.0367 24.2665C17.3776 24.2665 14.8978 23.5066 12.7853 22.2041C12.5076 22.0321 11.7169 21.8302 11.2615 22.3156C9.57787 24.109 7.22802 27.9399 6.76529 30.7113C5.62841 37.5347 12.9178 40 20.0368 40C27.1558 40 34.4451 37.5347 33.3082 30.7113Z" fill="#4BAF47"/>
</svg>
