<svg width="47" height="40" viewBox="0 0 47 40" fill="none" xmlns="http://www.w3.org/2000/svg">
<path d="M22.9601 10.7464C25.9277 10.7464 28.3333 8.34075 28.3333 5.37321C28.3333 2.40567 25.9277 0 22.9601 0C19.9926 0 17.5869 2.40567 17.5869 5.37321C17.5869 8.34075 19.9926 10.7464 22.9601 10.7464Z" fill="#4BAF47"/>
<path d="M41.7696 20.156L36.7618 19.1114C35.0556 18.754 33.3712 19.536 32.4806 20.9262C31.6157 20.4819 30.6856 20.0988 29.6963 19.7808V16.8029C29.6983 14.5498 27.8538 12.7073 25.6086 12.7073H20.4882C18.2311 12.7073 16.3946 14.5498 16.3946 16.8029V19.7966C15.4151 20.1086 14.4949 20.4917 13.624 20.938C12.7335 19.5418 11.047 18.754 9.33886 19.1114L4.32698 20.156C2.12713 20.6161 0.699372 22.7982 1.15948 25.0059L2.41742 31.015C2.87359 33.2168 5.05761 34.6445 7.25948 34.1844L8.84515 33.8527C9.63895 35.0257 10.737 36.1019 12.1429 37.0221C15.0714 38.9415 18.9399 40 23.0453 40C29.327 40 34.7377 37.4743 37.2298 33.8467L38.8412 34.1844C41.041 34.6425 43.225 33.2168 43.6812 31.015L44.9411 25.0059C45.3992 22.7982 43.9714 20.6161 41.7696 20.156ZM23.0433 37.9483C19.3348 37.9483 15.8592 37.0142 13.2665 35.3061C12.3778 34.7255 11.6412 34.0798 11.0509 33.3886L12.2653 33.1339C14.4691 32.6758 15.8969 30.4937 15.4367 28.2899L14.3092 22.887C14.9668 22.5335 15.6579 22.2235 16.3925 21.9589V22.9443C16.3925 25.1935 18.2329 27.036 20.4861 27.036H25.6065C27.8538 27.036 29.6942 25.1916 29.6942 22.9443V21.9075C30.4426 22.1741 31.1456 22.4803 31.7973 22.8278L30.6539 28.2919C30.1977 30.4957 31.6235 32.6778 33.8273 33.1359L35.0535 33.3926C32.7669 36.0999 28.2428 37.9483 23.0433 37.9483Z" fill="#4BAF47"/>
<path d="M40.6799 17.81C43.6474 17.81 46.0531 15.4044 46.0531 12.4368C46.0531 9.46927 43.6474 7.0636 40.6799 7.0636C37.7123 7.0636 35.3066 9.46927 35.3066 12.4368C35.3066 15.4044 37.7123 17.81 40.6799 17.81Z" fill="#4BAF47"/>
<path d="M6.51278 17.6974C9.41956 17.0892 11.2758 14.2397 10.6755 11.3349C10.0633 8.43203 7.2197 6.56788 4.31091 7.17611C1.40808 7.78233 -0.456078 10.6299 0.152155 13.5347C0.758465 16.4415 3.60601 18.3037 6.51278 17.6974Z" fill="#4BAF47"/>
</svg>
