<svg width="45" height="40" viewBox="0 0 45 40" fill="none" xmlns="http://www.w3.org/2000/svg">
<path fill-rule="evenodd" clip-rule="evenodd" d="M8.92578 6.66667C8.92578 4.89856 9.62816 3.20286 10.8784 1.95262C12.1286 0.702379 13.8243 0 15.5924 0H37.8147C39.5828 0 41.2785 0.702379 42.5287 1.95262C43.779 3.20286 44.4813 4.89856 44.4813 6.66667V33.3333C44.4813 35.1014 43.779 36.7971 42.5287 38.0474C41.2785 39.2976 39.5828 40 37.8147 40H30.0147C30.7587 38.7085 31.1496 37.2438 31.148 35.7533V23.6689C31.1459 22.5224 30.9143 21.3879 30.467 20.3323C30.0198 19.2767 29.3658 18.3212 28.5436 17.5222L19.6547 8.83111C16.748 5.98667 12.3258 5.52667 8.92578 7.44667V6.66667ZM33.3702 8.88889C33.3702 8.29952 33.6043 7.73429 34.0211 7.31754C34.4378 6.90079 35.0031 6.66667 35.5924 6.66667C36.1818 6.66667 36.7493 6.90079 37.166 7.31754C37.5828 7.73429 37.8169 8.29952 37.8169 8.88889C37.8169 9.47826 37.5828 10.0435 37.166 10.4602C36.7493 10.877 36.184 11.1111 35.5947 11.1111C35.0053 11.1111 34.4378 10.877 34.0211 10.4602C33.6043 10.0435 33.3702 9.47826 33.3702 8.88889ZM26.7036 6.66667C26.1142 6.66667 25.549 6.90079 25.1322 7.31754C24.7155 7.73429 24.4813 8.29952 24.4813 8.88889C24.4813 9.47826 24.7155 10.0435 25.1322 10.4602C25.549 10.877 26.1142 11.1111 26.7036 11.1111H26.7058C27.2952 11.1111 27.8604 10.877 28.2771 10.4602C28.6939 10.0435 28.928 9.47826 28.928 8.88889C28.928 8.29952 28.6939 7.73429 28.2771 7.31754C27.8604 6.90079 27.2952 6.66667 26.7058 6.66667H26.7036ZM33.3702 20C33.3702 19.4106 33.6043 18.8454 34.0211 18.4287C34.4378 18.0119 35.0031 17.7778 35.5924 17.7778C36.1818 17.7778 36.7493 18.0119 37.166 18.4287C37.5828 18.8454 37.8169 19.4106 37.8169 20C37.8169 20.5894 37.5828 21.1546 37.166 21.5713C36.7493 21.9881 36.184 22.2222 35.5947 22.2222C35.0053 22.2222 34.4378 21.9881 34.0211 21.5713C33.6043 21.1546 33.3702 20.5894 33.3702 20ZM35.5924 28.8889C35.0031 28.8889 34.4378 29.123 34.0211 29.5398C33.6043 29.9565 33.3702 30.5217 33.3702 31.1111C33.3702 31.7005 33.6043 32.2657 34.0211 32.6825C34.4378 33.0992 35.0031 33.3333 35.5924 33.3333C36.1818 33.3333 36.7493 33.0992 37.166 32.6825C37.5828 32.2657 37.8169 31.7005 37.8169 31.1111C37.8169 30.5217 37.5828 29.9565 37.166 29.5398C36.7493 29.123 36.1818 28.8889 35.5924 28.8889Z" fill="#4BAF47"/>
<path fill-rule="evenodd" clip-rule="evenodd" d="M8.65711 12.6822C9.9073 11.4324 11.6027 10.7303 13.3704 10.7303C15.1382 10.7303 16.8336 11.4324 18.0838 12.6822L24.7504 19.3489C26.0008 20.5988 26.7034 22.2943 26.7038 24.0622V33.3333C26.7038 35.1014 26.0014 36.7971 24.7512 38.0474C23.5009 39.2976 21.8052 40 20.0371 40H15.5927V33.3333C15.5927 32.744 15.3585 32.1787 14.9418 31.762C14.525 31.3452 13.9598 31.1111 13.3704 31.1111C12.7811 31.1111 12.2158 31.3452 11.7991 31.762C11.3823 32.1787 11.1482 32.744 11.1482 33.3333V40H6.70378C4.93567 40 3.23997 39.2976 1.98973 38.0474C0.739489 36.7971 0.0371094 35.1014 0.0371094 33.3333V24.0622C0.0380761 22.295 0.740658 20.6005 1.99044 19.3511L8.65711 12.6844V12.6822Z" fill="#4BAF47"/>
</svg>
