<svg width="185" height="52" viewBox="0 0 185 52" fill="none" xmlns="http://www.w3.org/2000/svg">
<path d="M26.0357 0C11.6777 0 0.0371094 11.6451 0.0371094 26.0086C0.0371094 29.7274 0.820009 33.2632 2.2258 36.4646C7.4918 47.761 23.0412 35.5785 26.7071 26C17.2781 40.9008 -1.77156 37.5194 7.1975 28.0409C15.2922 20.2632 29.5559 19.1398 32.5275 10.8476C36.1734 18.7139 39.4193 40.8065 26.9929 52C39.545 51.5455 49.8284 42.19 51.7228 30.0532C51.9285 28.7355 52.0371 27.3863 52.0371 26.0114C52.0343 11.6451 40.3965 0 26.0357 0Z" fill="white"/>
<path d="M67.0371 34.4146V11H82.7064V15.0816H72.0407V20.6608H81.6664V24.7424H72.0407V34.4146H67.0371Z" fill="white"/>
<path d="M92.6962 34.7576C90.9013 34.7576 89.349 34.3803 88.0393 33.6258C86.7374 32.8636 85.7321 31.8041 85.0233 30.4474C84.3146 29.0831 83.9602 27.5015 83.9602 25.7027C83.9602 23.8887 84.3146 22.3034 85.0233 20.9466C85.7321 19.5823 86.7374 18.5229 88.0393 17.7683C89.349 17.0061 90.9013 16.625 92.6962 16.625C94.4912 16.625 96.0396 17.0061 97.3416 17.7683C98.6512 18.5229 99.6604 19.5823 100.369 20.9466C101.078 22.3034 101.432 23.8887 101.432 25.7027C101.432 27.5015 101.078 29.0831 100.369 30.4474C99.6604 31.8041 98.6512 32.8636 97.3416 33.6258C96.0396 34.3803 94.4912 34.7576 92.6962 34.7576ZM92.7193 30.9848C93.5359 30.9848 94.2177 30.7561 94.7647 30.2988C95.3116 29.8338 95.7238 29.2012 96.0011 28.4009C96.2861 27.6006 96.4287 26.6898 96.4287 25.6684C96.4287 24.6471 96.2861 23.7363 96.0011 22.936C95.7238 22.1357 95.3116 21.503 94.7647 21.0381C94.2177 20.5732 93.5359 20.3407 92.7193 20.3407C91.895 20.3407 91.2017 20.5732 90.6393 21.0381C90.0847 21.503 89.6648 22.1357 89.3798 22.936C89.1024 23.7363 88.9638 24.6471 88.9638 25.6684C88.9638 26.6898 89.1024 27.6006 89.3798 28.4009C89.6648 29.2012 90.0847 29.8338 90.6393 30.2988C91.2017 30.7561 91.895 30.9848 92.7193 30.9848Z" fill="white"/>
<path d="M104.633 34.4146V16.8537H109.406V19.9177H109.59C109.914 18.8277 110.457 18.0046 111.22 17.4482C111.982 16.8841 112.861 16.6021 113.854 16.6021C114.101 16.6021 114.367 16.6174 114.652 16.6479C114.937 16.6784 115.187 16.7203 115.403 16.7736V21.0953C115.172 21.0267 114.852 20.9657 114.444 20.9123C114.035 20.859 113.662 20.8323 113.323 20.8323C112.599 20.8323 111.952 20.9886 111.382 21.3011C110.819 21.6059 110.372 22.0328 110.041 22.5816C109.718 23.1303 109.556 23.763 109.556 24.4794V34.4146H104.633Z" fill="white"/>
<path d="M125.211 34.7576C123.385 34.7576 121.813 34.3918 120.496 33.6601C119.186 32.9207 118.177 31.8765 117.468 30.5274C116.76 29.1707 116.405 27.5663 116.405 25.7142C116.405 23.9078 116.76 22.3224 117.468 20.9581C118.177 19.5938 119.175 18.5305 120.461 17.7683C121.756 17.0061 123.273 16.625 125.014 16.625C126.185 16.625 127.275 16.8117 128.284 17.1852C129.301 17.5511 130.187 18.1037 130.942 18.843C131.705 19.5823 132.298 20.5122 132.722 21.6326C133.145 22.7454 133.357 24.0488 133.357 25.5427V26.8803H118.37V23.862H128.724C128.724 23.1608 128.569 22.5396 128.261 21.9985C127.953 21.4573 127.526 21.0343 126.979 20.7294C126.439 20.4169 125.812 20.2607 125.095 20.2607C124.348 20.2607 123.685 20.4322 123.108 20.7752C122.537 21.1105 122.091 21.564 121.767 22.1357C121.444 22.6997 121.278 23.3285 121.27 24.0221V26.8918C121.27 27.7607 121.432 28.5114 121.756 29.1441C122.087 29.7767 122.553 30.2645 123.154 30.6075C123.755 30.9505 124.467 31.1219 125.292 31.1219C125.839 31.1219 126.339 31.0457 126.794 30.8933C127.248 30.7409 127.637 30.5122 127.961 30.2073C128.284 29.9024 128.531 29.529 128.7 29.0869L133.253 29.3841C133.022 30.4665 132.548 31.4116 131.832 32.2195C131.123 33.0198 130.207 33.6448 129.082 34.0945C127.965 34.5366 126.674 34.7576 125.211 34.7576Z" fill="white"/>
<path d="M151.338 21.8613L146.831 22.1357C146.754 21.7546 146.588 21.4116 146.334 21.1067C146.08 20.7942 145.745 20.5465 145.329 20.3636C144.921 20.173 144.431 20.0777 143.861 20.0777C143.099 20.0777 142.455 20.2378 141.932 20.5579C141.408 20.8704 141.146 21.2896 141.146 21.8155C141.146 22.2348 141.315 22.5892 141.654 22.8788C141.993 23.1684 142.575 23.4009 143.399 23.5762L146.612 24.2165C148.337 24.5671 149.624 25.1311 150.471 25.9085C151.319 26.686 151.742 27.7073 151.742 28.9726C151.742 30.1235 151.399 31.1334 150.714 32.0023C150.036 32.8712 149.104 33.5495 147.917 34.0373C146.739 34.5175 145.379 34.7576 143.838 34.7576C141.489 34.7576 139.617 34.2736 138.222 33.3056C136.836 32.33 136.023 31.0038 135.784 29.327L140.626 29.0755C140.772 29.7843 141.127 30.3255 141.689 30.6989C142.251 31.0648 142.972 31.2477 143.85 31.2477C144.713 31.2477 145.406 31.0838 145.93 30.7561C146.461 30.4207 146.731 29.9901 146.739 29.4642C146.731 29.0221 146.542 28.6601 146.172 28.378C145.803 28.0884 145.233 27.8674 144.462 27.7149L141.388 27.109C139.655 26.766 138.365 26.1715 137.517 25.3255C136.678 24.4794 136.258 23.4009 136.258 22.0899C136.258 20.9619 136.566 19.9901 137.182 19.1745C137.806 18.359 138.681 17.7302 139.805 17.2881C140.938 16.846 142.263 16.625 143.78 16.625C146.022 16.625 147.786 17.0937 149.073 18.0312C150.367 18.9687 151.122 20.2454 151.338 21.8613Z" fill="white"/>
<path d="M164.283 16.8537V20.5122H153.594V16.8537H164.283ZM156.021 12.6463H160.943V29.0183C160.943 29.468 161.013 29.8186 161.151 30.0701C161.29 30.314 161.483 30.4855 161.729 30.5846C161.983 30.6837 162.276 30.7332 162.607 30.7332C162.838 30.7332 163.07 30.7142 163.301 30.6761C163.532 30.6303 163.709 30.596 163.832 30.5732L164.606 34.1974C164.36 34.2736 164.013 34.3613 163.566 34.4604C163.12 34.5671 162.577 34.6319 161.937 34.6547C160.751 34.7005 159.711 34.5442 158.817 34.186C157.931 33.8277 157.242 33.2713 156.749 32.5168C156.256 31.7622 156.013 30.8095 156.021 29.6585V12.6463Z" fill="white"/>
<path d="M170.529 41C169.905 41 169.319 40.9505 168.772 40.8514C168.233 40.7599 167.786 40.6418 167.432 40.4969L168.541 36.8613C169.119 37.0366 169.639 37.1319 170.101 37.1471C170.571 37.1623 170.975 37.0556 171.314 36.827C171.661 36.5983 171.942 36.2096 172.158 35.6608L172.447 34.9177L166.08 16.8537H171.257L174.931 29.75H175.116L178.826 16.8537H184.037L177.138 36.3125C176.807 37.2576 176.357 38.0808 175.786 38.782C175.224 39.4909 174.511 40.0358 173.649 40.4169C172.786 40.8056 171.746 41 170.529 41Z" fill="white"/>
</svg>
