<svg width="185" height="52" viewBox="0 0 185 52" fill="none" xmlns="http://www.w3.org/2000/svg">
<path d="M26.0357 0C11.6777 0 0.0371094 11.6451 0.0371094 26.0086C0.0371094 29.7274 0.820009 33.2632 2.2258 36.4646C7.4918 47.761 23.0412 35.5785 26.7071 26C17.2781 40.9008 -1.77156 37.5194 7.1975 28.0409C15.2922 20.2632 29.5559 19.1398 32.5275 10.8476C36.1734 18.7139 39.4193 40.8065 26.9929 52C39.545 51.5455 49.8284 42.19 51.7228 30.0532C51.9285 28.7355 52.0371 27.3863 52.0371 26.0114C52.0343 11.6451 40.3965 0 26.0357 0Z" fill="white"/>
<path d="M67.0371 34.4146V11H82.7064V15.0816H72.0407V20.6608H81.6664V24.7424H72.0407V34.4146H67.0371Z" fill="white"/>
<path d="M92.6962 34.7576C90.9013 34.7576 89.349 34.3803 88.0393 33.6258C86.7374 32.8636 85.7321 31.8041 85.0233 30.4474C84.3146 29.0831 83.9602 27.5015 83.9602 25.7027C83.9602 23.8887 84.3146 22.3034 85.0233 20.9466C85.7321 19.5823 86.7374 18.5229 88.0393 17.7683C89.349 17.0061 90.9013 16.625 92.6962 16.625C94.4912 16.625 96.0396 17.0061 97.3416 17.7683C98.6512 18.5229 99.6604 19.5823 100.369 20.9466C101.078 22.3034 101.432 23.8887 101.432 25.7027C101.432 27.5015 101.078 29.0831 100.369 30.4474C99.6604 31.8041 98.6512 32.8636 97.3416 33.6258C96.0396 34.3803 94.4912 34.7576 92.6962 34.7576ZM92.7193 30.9848C93.5359 30.9848 94.2177 30.7561 94.7647 30.2988C95.3116 29.8338 95.7238 29.2012 96.0011 28.4009C96.2861 27.6006 96.4287 26.6898 96.4287 25.6684C96.4287 24.6471 96.2861 23.7363 96.0011 22.936C95.7238 22.1357 95.3116 21.503 94.7647 21.0381C94.2177 20.5732 93.5359 20.3407 92.7193 20.3407C91.895 20.3407 91.2017 20.5732 90.6393 21.0381C90.0847 21.503 89.6648 22.1357 89.3798 22.936C89.1024 23.7363 88.9638 24.6471 88.9638 25.6684C88.9638 26.6898 89.1024 27.6006 89.3798 28.4009C89.6648 29.2012 90.0847 29.8338 90.6393 30.2988C91.2017 30.7561 91.895 30.9848 92.7193 30.9848Z" fill="white"/>
<path d="M104.633 34.4146V16.8537H109.406V19.9177H109.59C109.914 18.8277 110.457 18.0046 111.22 17.4482C111.982 16.8841 112.861 16.6021 113.854 16.6021C114.101 16.6021 114.367 16.6174 114.652 16.6479C114.937 16.6784 115.187 16.7203 115.403 16.7736V21.0953C115.172 21.0267 114.852 20.9657 114.444 20.9123C114.035 20.859 113.662 20.8323 113.323 20.8323C112.599 20.8323 111.952 20.9886 111.382 21.3011C110.819 21.6059 110.372 22.0328 110.041 22.5816C109.718 23.1303 109.556 23.763 109.556 24.4794V34.4146H104.633Z" fill="white"/>
<path d="M125.211 34.7576C123.385 34.7576 121.813 34.3918 120.496 33.6601C119.186 32.9207 118.177 31.8765 117.468 30.5274C116.76 29.1707 116.405 27.5663 116.405 25.7142C116.405 23.9078 116.76 22.3224 117.468 20.9581C118.177 19.5938 119.175 18.5305 120.461 17.7683C121.756 17.0061 123.273 16.625 125.014 16.625C126.185 16.625 127.275 16.8117 128.284 17.1852C129.301 17.5511 130.187 18.1037 130.942 18.843C131.705 19.5823 132.298 20.5122 132.722 21.6326C133.145 22.7454 133.357 24.0488 133.357 25.5427V26.8803H118.37V23.862H128.724C128.724 23.1608 128.569 22.5396 128.261 21.9985C127.953 21.4573 127.526 21.0343 126.979 20.7294C126.439 20.4169 125.812 20.2607 125.095 20.2607C124.348 20.2607 123.685 20.4322 123.108 20.7752C122.537 21.1105 122.091 21.564 121.767 22.1357C121.444 22.6997 121.278 23.3285 121.27 24.0221V26.8918C121.27 27.7607 121.432 28.5114 121.756 29.1441C122.087 29.7767 122.553 30.2645 123.154 30.6075C123.755 30.9505 124.467 31.1219 125.292 31.1219C125.839 31.1219 126.339 31.0457 126.794 30.8933C127.248 30.7409 127.637 30.5122 127.961 30.2073C128.284 29.9024 128.531 29.529 128.7 29.0869C128.877 28.6448 128.991 28.1423 129.042 27.5793H133.391C133.296 28.5474 133.017 29.4401 132.556 30.2576C132.103 31.0752 131.472 31.7586 130.664 32.3074C129.855 32.8485 128.882 33.2581 127.743 33.5362C126.605 33.8143 125.465 33.9533 124.324 33.9533C124.011 33.9533 123.601 33.9533 123.095 33.9533C122.59 33.9533 122.075 33.9533 121.55 33.9533C121.025 33.9533 120.515 33.9533 120.02 33.9533C119.525 33.9533 119.036 33.9533 118.556 33.9533C118.076 33.9533 117.606 33.9533 117.146 33.9533C116.686 33.9533 116.24 33.9533 115.81 33.9533C115.381 33.9533 114.967 33.9533 114.57 33.9533C114.173 33.9533 113.792 33.9533 113.43 33.9533C113.068 33.9533 112.722 33.9533 112.396 33.9533C112.07 33.9533 111.762 33.9533 111.474 33.9533C111.186 33.9533 110.915 33.9533 110.662 33.9533C110.409 33.9533 110.172 33.9533 109.95 33.9533C109.728 33.9533 109.522 33.9533 109.331 33.9533C109.14 33.9533 108.963 33.9533 108.801 33.9533C108.639 33.9533 108.49 33.9533 108.353 33.9533C108.216 33.9533 108.092 33.9533 107.98 33.9533C107.868 33.9533 107.766 33.9533 107.676 33.9533C107.586 33.9533 107.507 33.9533 107.438 33.9533C107.369 33.9533 107.31 33.9533 107.262 33.9533C107.214 33.9533 107.176 33.9533 107.148 33.9533C107.12 33.9533 107.102 33.9533 107.094 33.9533H105.944V19.1814H104.019V16.8537H105.944V16.6021C106.406 16.4848 106.905 16.4848 107.441 16.6021C107.978 16.7194 108.567 16.8909 109.208 17.1166C109.849 17.3358 110.525 17.6295 111.235 18.0016C111.945 18.3737 112.685 18.8221 113.457 19.3481C114.228 19.8663 115.013 20.459 115.811 21.1264C116.61 21.7861 117.404 22.5248 118.193 23.3437C118.983 24.1548 119.754 25.047 120.507 26.0203C121.261 26.9858 122.006 28.029 122.743 29.151C123.479 30.2674 124.182 31.4596 124.852 32.7265C125.522 33.9935 126.138 35.3333 126.699 36.746C127.26 38.1586 127.748 39.6276 128.165 41.1528C128.582 42.6713 128.939 44.237 129.236 45.8499C129.532 47.4628 129.785 49.1067 129.996 50.7806H132.234V16.8537H134.074V19.1814H132.234V34.4146H130.394V22.0328H127.742V34.4146H125.211Z" fill="white"/>
<path d="M146.644 34.7576C144.849 34.7576 143.296 34.3803 141.987 33.6258C140.685 32.8636 139.68 31.8041 138.971 30.4474C138.263 29.0831 137.909 27.5015 137.909 25.7027C137.909 23.8887 138.263 22.3034 138.971 20.9466C139.68 19.5823 140.685 18.5229 141.987 17.7683C143.296 17.0061 144.849 16.625 146.644 16.625C148.439 16.625 149.987 17.0061 151.289 17.7683C152.599 18.5229 153.608 19.5823 154.317 20.9466C155.025 22.3034 155.38 23.8887 155.38 25.7027C155.38 27.5015 155.025 29.0831 154.317 30.4474C153.608 31.8041 152.599 32.8636 151.289 33.6258C149.987 34.3803 148.439 34.7576 146.644 34.7576ZM146.667 30.9848C147.484 30.9848 148.166 30.7561 148.713 30.2988C149.26 29.8338 149.672 29.2012 149.95 28.4009C150.235 27.6006 150.377 26.6898 150.377 25.6684C150.377 24.6471 150.235 23.7363 149.95 22.936C149.672 22.1357 149.26 21.503 148.713 21.0381C148.166 20.5732 147.484 20.3407 146.667 20.3407C145.842 20.3407 145.148 20.5732 144.586 21.0381C144.031 21.503 143.611 22.1357 143.326 22.936C143.048 23.7363 142.91 24.6471 142.91 25.6684C142.91 26.6898 143.048 27.6006 143.326 28.4009C143.611 29.2012 144.031 29.8338 144.586 30.2988C145.148 30.7561 145.842 30.9848 146.667 30.9848Z" fill="white"/>
<path d="M160.537 34.4146V11H176.207V15.0816H165.541V20.6608H175.167V24.7424H165.541V34.4146H160.537Z" fill="white"/>
<path d="M185.007 34.4146L179.195 11.3443L179.164 11.0055L179.133 10.6666H184.314L186.257 21.567L188.046 32.2935L189.835 21.567L191.777 10.6666H196.959L196.928 11.0055L196.897 11.3443L191.085 34.4146H185.007Z" fill="white"/>
</svg>
