<svg width="184" height="52" viewBox="0 0 184 52" fill="none" xmlns="http://www.w3.org/2000/svg">
<path d="M25.9986 0C11.6406 0 0 11.6451 0 26.0086C0 29.7274 0.7829 33.2632 2.18869 36.4646C7.4547 47.761 23.0041 35.5785 26.67 26C17.2409 40.9008 -1.80867 37.5194 7.16039 28.0409C15.2551 20.2632 29.5188 19.1398 32.4904 10.8476C36.1363 18.7139 39.3822 40.8065 26.9558 52C39.5079 51.5455 49.7913 42.19 51.6857 30.0532C51.8914 28.7355 52 27.3863 52 26.0114C51.9971 11.6451 40.3594 0 25.9986 0Z" fill="#4BAF47"/>
<path d="M67 34.4146V11H82.6693V15.0816H72.0036V20.6608H81.6293V24.7424H72.0036V34.4146H67Z" fill="#1A1A1A"/>
<path d="M92.6591 34.7576C90.8642 34.7576 89.3119 34.3803 88.0022 33.6258C86.7003 32.8636 85.695 31.8041 84.9862 30.4474C84.2775 29.0831 83.9231 27.5015 83.9231 25.7027C83.9231 23.8887 84.2775 22.3034 84.9862 20.9466C85.695 19.5823 86.7003 18.5229 88.0022 17.7683C89.3119 17.0061 90.8642 16.625 92.6591 16.625C94.4541 16.625 96.0025 17.0061 97.3044 17.7683C98.6141 18.5229 99.6233 19.5823 100.332 20.9466C101.041 22.3034 101.395 23.8887 101.395 25.7027C101.395 27.5015 101.041 29.0831 100.332 30.4474C99.6233 31.8041 98.6141 32.8636 97.3044 33.6258C96.0025 34.3803 94.4541 34.7576 92.6591 34.7576ZM92.6822 30.9848C93.4988 30.9848 94.1806 30.7561 94.7276 30.2988C95.2745 29.8338 95.6867 29.2012 95.964 28.4009C96.249 27.6006 96.3916 26.6898 96.3916 25.6684C96.3916 24.6471 96.249 23.7363 95.964 22.936C95.6867 22.1357 95.2745 21.503 94.7276 21.0381C94.1806 20.5732 93.4988 20.3407 92.6822 20.3407C91.8579 20.3407 91.1646 20.5732 90.6022 21.0381C90.0476 21.503 89.6277 22.1357 89.3427 22.936C89.0653 23.7363 88.9267 24.6471 88.9267 25.6684C88.9267 26.6898 89.0653 27.6006 89.3427 28.4009C89.6277 29.2012 90.0476 29.8338 90.6022 30.2988C91.1646 30.7561 91.8579 30.9848 92.6822 30.9848Z" fill="#1A1A1A"/>
<path d="M104.596 34.4146V16.8537H109.368V19.9177H109.553C109.877 18.8277 110.42 18.0046 111.183 17.4482C111.945 16.8841 112.824 16.6021 113.817 16.6021C114.064 16.6021 114.33 16.6174 114.615 16.6479C114.9 16.6784 115.15 16.7203 115.366 16.7736V21.0953C115.135 21.0267 114.815 20.9657 114.407 20.9123C113.998 20.859 113.625 20.8323 113.286 20.8323C112.562 20.8323 111.915 20.9886 111.344 21.3011C110.782 21.6059 110.335 22.0328 110.004 22.5816C109.68 23.1303 109.519 23.763 109.519 24.4794V34.4146H104.596Z" fill="#1A1A1A"/>
<path d="M125.174 34.7576C123.348 34.7576 121.776 34.3918 120.459 33.6601C119.149 32.9207 118.14 31.8765 117.431 30.5274C116.723 29.1707 116.368 27.5663 116.368 25.7142C116.368 23.9078 116.723 22.3224 117.431 20.9581C118.14 19.5938 119.138 18.5305 120.424 17.7683C121.718 17.0061 123.236 16.625 124.977 16.625C126.148 16.625 127.238 16.8117 128.247 17.1852C129.264 17.5511 130.15 18.1037 130.905 18.843C131.668 19.5823 132.261 20.5122 132.685 21.6326C133.108 22.7454 133.32 24.0488 133.32 25.5427V26.8803H118.333V23.862H128.686C128.686 23.1608 128.532 22.5396 128.224 21.9985C127.916 21.4573 127.489 21.0343 126.942 20.7294C126.402 20.4169 125.774 20.2607 125.058 20.2607C124.311 20.2607 123.648 20.4322 123.07 20.7752C122.5 21.1105 122.054 21.564 121.73 22.1357C121.406 22.6997 121.241 23.3285 121.233 24.0221V26.8918C121.233 27.7607 121.395 28.5114 121.718 29.1441C122.05 29.7767 122.516 30.2645 123.117 30.6075C123.718 30.9505 124.43 31.1219 125.254 31.1219C125.801 31.1219 126.302 31.0457 126.757 30.8933C127.211 30.7409 127.6 30.5122 127.924 30.2073C128.247 29.9024 128.494 29.529 128.663 29.0869L133.216 29.3841C132.985 30.4665 132.511 31.4116 131.795 32.2195C131.086 33.0198 130.169 33.6448 129.045 34.0945C127.928 34.5366 126.637 34.7576 125.174 34.7576Z" fill="#1A1A1A"/>
<path d="M151.301 21.8613L146.794 22.1357C146.717 21.7546 146.551 21.4116 146.297 21.1067C146.043 20.7942 145.708 20.5465 145.292 20.3636C144.883 20.173 144.394 20.0777 143.824 20.0777C143.062 20.0777 142.418 20.2378 141.894 20.5579C141.371 20.8704 141.109 21.2896 141.109 21.8155C141.109 22.2348 141.278 22.5892 141.617 22.8788C141.956 23.1684 142.538 23.4009 143.362 23.5762L146.574 24.2165C148.3 24.5671 149.587 25.1311 150.434 25.9085C151.281 26.686 151.705 27.7073 151.705 28.9726C151.705 30.1235 151.362 31.1334 150.677 32.0023C149.999 32.8712 149.067 33.5495 147.88 34.0373C146.702 34.5175 145.342 34.7576 143.801 34.7576C141.451 34.7576 139.579 34.2736 138.185 33.3056C136.798 32.33 135.986 31.0038 135.747 29.327L140.589 29.0755C140.735 29.7843 141.089 30.3255 141.652 30.6989C142.214 31.0648 142.934 31.2477 143.813 31.2477C144.675 31.2477 145.369 31.0838 145.893 30.7561C146.424 30.4207 146.694 29.9901 146.702 29.4642C146.694 29.0221 146.505 28.6601 146.135 28.378C145.766 28.0884 145.195 27.8674 144.425 27.7149L141.351 27.109C139.618 26.766 138.328 26.1715 137.48 25.3255C136.641 24.4794 136.221 23.4009 136.221 22.0899C136.221 20.9619 136.529 19.9901 137.145 19.1745C137.769 18.359 138.643 17.7302 139.768 17.2881C140.901 16.846 142.226 16.625 143.743 16.625C145.985 16.625 147.749 17.0937 149.036 18.0312C150.33 18.9687 151.085 20.2454 151.301 21.8613Z" fill="#1A1A1A"/>
<path d="M164.246 16.8537V20.5122H153.557V16.8537H164.246ZM155.984 12.6463H160.906V29.0183C160.906 29.468 160.976 29.8186 161.114 30.0701C161.253 30.314 161.445 30.4855 161.692 30.5846C161.946 30.6837 162.239 30.7332 162.57 30.7332C162.801 30.7332 163.032 30.7142 163.264 30.6761C163.495 30.6303 163.672 30.596 163.795 30.5732L164.569 34.1974C164.323 34.2736 163.976 34.3613 163.529 34.4604C163.083 34.5671 162.539 34.6319 161.9 34.6547C160.714 34.7005 159.674 34.5442 158.78 34.186C157.894 33.8277 157.205 33.2713 156.712 32.5168C156.219 31.7622 155.976 30.8095 155.984 29.6585V12.6463Z" fill="#1A1A1A"/>
<path d="M170.492 41C169.868 41 169.282 40.9505 168.735 40.8514C168.196 40.7599 167.749 40.6418 167.395 40.4969L168.504 36.8613C169.082 37.0366 169.602 37.1319 170.064 37.1471C170.534 37.1623 170.938 37.0556 171.277 36.827C171.624 36.5983 171.905 36.2096 172.121 35.6608L172.41 34.9177L166.043 16.8537H171.22L174.894 29.75H175.079L178.788 16.8537H184L177.101 36.3125C176.77 37.2576 176.319 38.0808 175.749 38.782C175.187 39.4909 174.474 40.0358 173.612 40.4169C172.749 40.8056 171.709 41 170.492 41Z" fill="#1A1A1A"/>
</svg>
